<svg width="20" height="20" viewBox="0 0 20 20" fill="none" xmlns="http://www.w3.org/2000/svg">
<path d="M14.1667 7.5L11.359 10.636C10.2465 11.8787 9.69017 12.5 8.95833 12.5C8.2265 12.5 7.67021 11.8787 6.55764 10.636L5.83333 9.82697M10 17.5C6.87522 17.5 5.31283 17.5 4.21756 16.7042C3.86383 16.4472 3.55276 16.1362 3.29576 15.7824C2.5 14.6872 2.5 13.1248 2.5 10C2.5 6.87522 2.5 5.31283 3.29576 4.21756C3.55276 3.86383 3.86383 3.55276 4.21756 3.29576C5.31283 2.5 6.87522 2.5 10 2.5C13.1248 2.5 14.6872 2.5 15.7824 3.29576C16.1362 3.55276 16.4472 3.86383 16.7042 4.21756C17.5 5.31283 17.5 6.87522 17.5 10C17.5 13.1248 17.5 14.6872 16.7042 15.7824C16.4472 16.1362 16.1362 16.4472 15.7824 16.7042C14.6872 17.5 13.1248 17.5 10 17.5Z" stroke="#3B82F6" stroke-width="1.25" stroke-linecap="round"/>
</svg>
